<svg width="284" height="94" viewBox="0 0 284 94" fill="none" xmlns="http://www.w3.org/2000/svg">
<path d="M49.7145 27.0237H54.4804C54.7971 27.0237 55.0504 26.7714 55.0504 26.4718C55.0504 26.1564 54.7971 25.9041 54.4804 25.9041H49.7145C49.4136 25.9041 49.1445 26.1564 49.1445 26.4718C49.1445 26.7714 49.3978 27.0237 49.7145 27.0237ZM52.0895 68.6689C50.7278 68.6689 49.6036 69.7885 49.6036 71.1446C49.6036 72.5007 50.712 73.6203 52.0895 73.6203C53.4671 73.6203 54.5754 72.5164 54.5754 71.1446C54.5754 69.7727 53.4671 68.6689 52.0895 68.6689ZM39.9292 66.5559H64.2815V30.682H39.9292V66.5559ZM117.974 54.7766C116.818 54.7766 115.773 55.1551 114.839 55.912C113.904 56.6846 113.287 57.6781 113.002 58.9238C112.859 59.5072 112.796 59.9803 112.796 60.343V63.8279C112.796 65.3574 113.255 66.6505 114.205 67.6912C115.139 68.7319 116.359 69.2681 117.863 69.2681C119.62 69.2681 120.998 68.59 121.98 67.2339C122.961 65.8778 123.452 64.0959 123.452 61.8726C123.452 59.8384 122.993 58.1511 122.075 56.8266C121.045 55.4704 119.684 54.7766 117.974 54.7766ZM203.365 54.477C201.496 54.477 200.056 55.3128 199.09 56.9685C198.235 58.3404 197.823 60.0118 197.823 61.9987C197.823 63.9225 198.235 65.5782 199.09 66.9501C200.087 68.6058 201.512 69.4415 203.333 69.4415C205.106 69.4415 206.516 68.6058 207.529 66.9028C208.4 65.5151 208.843 63.8436 208.843 61.9199C208.843 59.9961 208.432 58.3404 207.592 56.9685C206.579 55.3128 205.186 54.477 203.365 54.477ZM141.122 54.7766C139.967 54.7766 138.922 55.1551 137.987 55.912C137.053 56.6846 136.436 57.6781 136.135 58.9238C135.992 59.5072 135.929 59.9803 135.929 60.343V63.8279C135.929 65.3574 136.388 66.6505 137.338 67.6912C138.272 68.7319 139.492 69.2681 140.996 69.2681C142.769 69.2681 144.131 68.59 145.128 67.2339C146.11 65.8778 146.601 64.0959 146.601 61.8726C146.601 59.8384 146.142 58.1511 145.208 56.8266C144.194 55.4704 142.833 54.7766 141.122 54.7766ZM92.7663 47.2707H92.6713C92.3705 48.5007 91.9271 50.3298 91.278 52.7582L88.8554 60.3588H96.6931L94.2389 52.7582C93.9697 51.9698 93.4788 50.1406 92.7663 47.2707ZM238.864 54.2563C237.344 54.2563 236.093 54.9028 235.143 56.1643C234.367 57.1735 233.892 58.3719 233.75 59.7753H243.503C243.535 58.4034 243.234 57.205 242.601 56.1958C241.777 54.9185 240.526 54.2563 238.864 54.2563ZM113.398 33.5519C113.461 33.3469 113.461 33.1577 113.461 32.9527V31.4705C111.529 31.4547 109.677 31.8489 109.677 33.4888C109.677 34.5611 110.373 35.0499 111.228 35.0499C112.353 35.0342 113.128 34.3246 113.398 33.5519ZM87.8579 26.7714C87.5729 25.8568 87.3195 24.8476 87.0979 23.9803H87.0504C86.8287 24.8476 86.5753 25.8883 86.3378 26.7714L85.182 30.4613H89.0296L87.8579 26.7714ZM243.187 25.6991C246.702 25.6991 247.873 28.5848 247.873 30.9658C247.873 31.4704 247.826 31.8804 247.778 32.117H240.511C240.574 34.0723 242.094 34.908 243.852 34.908C245.118 34.908 246.021 34.703 246.86 34.4192L247.256 36.2799C246.322 36.6741 245.023 36.9737 243.472 36.9737C239.956 36.9737 237.882 34.8292 237.882 31.5178C237.882 28.5217 239.703 25.6991 243.187 25.6991ZM199.707 25.9514L199.834 27.5756H199.897C200.388 26.7241 201.56 25.7149 203.365 25.7149C205.265 25.7149 207.212 26.9291 207.212 30.3509V36.7687H204.473V30.6662C204.473 29.1209 203.887 27.9383 202.399 27.9383C201.306 27.9383 200.546 28.7109 200.261 29.5309C200.166 29.7517 200.135 30.0828 200.135 30.3982V36.7687H197.395V29.184C197.395 27.9383 197.348 26.8975 197.3 25.9672H199.707V25.9514ZM170.922 25.6991C174.437 25.6991 175.608 28.5848 175.608 30.9658C175.608 31.4704 175.561 31.8804 175.513 32.117H168.246C168.309 34.0723 169.829 34.908 171.587 34.908C172.853 34.908 173.74 34.703 174.595 34.4192L174.991 36.2799C174.057 36.6741 172.758 36.9737 171.207 36.9737C167.691 36.9737 165.617 34.8292 165.617 31.5178C165.617 28.5217 167.454 25.6991 170.922 25.6991ZM159.695 21H162.435V36.753H159.695V21ZM137.972 27.6229C136.895 27.6229 135.787 27.954 135.058 28.4271L134.52 26.6452C135.327 26.1564 136.721 25.6833 138.447 25.6833C141.93 25.6833 142.928 27.8752 142.928 30.2563V34.1354C142.928 35.113 142.975 36.0591 143.102 36.7372H140.632L140.426 35.5388H140.362C139.713 36.3745 138.573 36.9737 137.148 36.9737C134.963 36.9737 133.744 35.3969 133.744 33.7569C133.744 31.0447 136.167 29.657 140.188 29.6728V29.4994C140.172 28.8055 139.872 27.6229 137.972 27.6229ZM121.758 21.4415C122.692 21.4415 123.278 22.0881 123.294 22.9238C123.294 23.728 122.692 24.3903 121.726 24.3903C120.808 24.3903 120.206 23.728 120.206 22.9238C120.222 22.0881 120.855 21.4415 121.758 21.4415ZM123.12 25.9514V36.753H120.38V25.9514H123.12ZM85.4353 21.7885H88.9346L93.8114 36.7372H90.8504L89.4887 32.4954H84.7386L83.4403 36.7372H80.606L85.4353 21.7885ZM67.1791 71.3811C67.1791 74.0145 65.0257 76.159 62.3814 76.159H41.7976C39.1534 76.159 37 74.0302 37 71.3811V25.841C37 23.2076 39.1534 21.0631 41.7976 21.0631H62.3814C65.0257 21.0631 67.1791 23.2076 67.1791 25.841V71.3811ZM100.256 72.4691L97.5323 63.9225H88.032L85.4353 72.4691H80.5902L89.9796 43.3758H95.7906L105.243 72.4691H100.256ZM101.317 36.753H98.6248L94.5872 25.9514H97.5481L99.3056 31.4389C99.6223 32.385 99.844 33.2523 100.034 34.1511H100.097C100.303 33.2681 100.541 32.4166 100.826 31.4389L102.567 25.9514H105.449L101.317 36.753ZM106.969 33.7727C106.969 31.0605 109.392 29.6728 113.413 29.6886V29.5151C113.413 28.8055 113.128 27.6229 111.213 27.6229C110.136 27.6229 109.028 27.954 108.299 28.4271L107.761 26.6452C108.568 26.1564 109.962 25.6833 111.688 25.6833C115.155 25.6833 116.169 27.8752 116.169 30.2563V34.1354C116.169 35.113 116.216 36.0591 116.343 36.7372H113.873L113.667 35.5388H113.603C112.954 36.3745 111.814 36.9737 110.389 36.9737C108.188 36.9895 106.969 35.4126 106.969 33.7727ZM125.289 70.1984C123.547 72.0276 121.378 72.958 118.797 72.958C115.994 72.958 113.999 71.9645 112.78 69.9777V81H108.109V58.3877C108.109 56.1485 108.046 53.8463 107.935 51.4967H112.052L112.305 54.8239H112.384C113.952 52.3325 116.311 51.071 119.494 51.071C121.98 51.071 124.054 52.0486 125.716 54.004C127.379 55.9593 128.202 58.5453 128.202 61.7306C128.218 65.3101 127.236 68.117 125.289 70.1984ZM130.166 36.753H127.426V21H130.166V36.753ZM148.438 70.1984C146.696 72.0276 144.527 72.958 141.946 72.958C139.159 72.958 137.148 71.9645 135.945 69.9777V81H131.258V58.3877C131.258 56.1485 131.195 53.8463 131.084 51.4967H135.185L135.454 54.8239H135.533C137.101 52.3325 139.46 51.071 142.643 51.071C145.128 51.071 147.203 52.0486 148.865 54.004C150.528 55.9593 151.367 58.5453 151.367 61.7306C151.351 65.3101 150.385 68.117 148.438 70.1984ZM151.652 36.9895C150.243 36.9895 149.008 36.4534 148.216 35.1288H148.168L148.042 36.753H145.698C145.746 36.0276 145.793 34.8292 145.793 33.7096V21H148.533V27.4337H148.58C149.245 26.3929 150.433 25.6991 152.064 25.6991C154.708 25.6991 156.608 27.8909 156.592 31.1866C156.576 35.0657 154.09 36.9895 151.652 36.9895ZM175.212 70.3561C173.297 72.0591 170.652 72.8949 167.248 72.8949C164.097 72.8949 161.58 72.2957 159.68 71.0815L160.772 67.2024C162.815 68.4008 165.079 69.0158 167.517 69.0158C169.291 69.0158 170.652 68.6216 171.634 67.8331C172.616 67.0447 173.107 65.9882 173.107 64.6479C173.107 63.481 172.695 62.4875 171.903 61.6833C171.08 60.8791 169.75 60.138 167.881 59.4442C162.767 57.5519 160.218 54.7766 160.218 51.1183C160.218 48.7214 161.105 46.7661 162.925 45.2365C164.731 43.7227 167.121 42.9501 170.098 42.9501C172.758 42.9501 174.959 43.4074 176.732 44.322L175.545 48.1222C173.898 47.2392 172.03 46.7819 169.94 46.7819C168.293 46.7819 166.995 47.1919 166.061 47.9803C165.285 48.7057 164.889 49.5887 164.889 50.6294C164.889 51.7648 165.332 52.7267 166.235 53.4836C167.011 54.1774 168.436 54.9185 170.478 55.7227C172.996 56.7162 174.848 57.9146 176.036 59.2707C177.223 60.6268 177.809 62.2983 177.809 64.3167C177.793 66.7924 176.922 68.8108 175.212 70.3561ZM191.711 54.9816H186.549V65.184C186.549 67.7701 187.468 69.0631 189.289 69.0631C190.128 69.0631 190.809 69 191.363 68.8581L191.49 72.3903C190.571 72.7372 189.352 72.9107 187.848 72.9107C186.011 72.9107 184.554 72.3588 183.509 71.2234C182.464 70.1038 181.942 68.2116 181.942 65.5782V54.9816H178.87V51.4967H181.942V47.6492L186.534 46.2615V51.481H191.695V54.9816H191.711ZM189.067 36.9895C186.011 36.9895 183.636 34.908 183.636 31.4231C183.636 27.8752 185.979 25.6991 189.257 25.6991C192.487 25.6991 194.656 27.9698 194.656 31.2497C194.64 35.2234 191.822 36.9895 189.067 36.9895ZM210.917 69.7569C208.97 71.8857 206.405 72.9422 203.206 72.9422C200.103 72.9422 197.633 71.9172 195.812 69.8831C193.975 67.8489 193.073 65.2628 193.073 62.1564C193.073 58.908 194.023 56.2431 195.907 54.1774C197.807 52.0959 200.341 51.071 203.555 51.071C206.658 51.071 209.144 52.0802 211.012 54.1301C212.802 56.1012 213.688 58.6715 213.688 61.8095C213.673 65.0421 212.754 67.6754 210.917 69.7569ZM215.747 25.9514H217.283V23.9172L219.974 23.1603V25.9356H222.587V27.9698H219.974V32.7477C219.974 34.0723 220.323 34.7503 221.384 34.7503C221.874 34.7503 222.144 34.7346 222.46 34.64L222.508 36.7057C222.112 36.8634 221.368 36.9895 220.529 36.9895C219.499 36.9895 218.676 36.6584 218.169 36.1065C217.568 35.4915 217.298 34.4823 217.298 33.0631V27.9856H215.763V25.9514H215.747ZM227.765 55.5966C227.305 55.5178 226.815 55.4704 226.292 55.4704C224.645 55.4704 223.379 56.0854 222.476 57.3154C221.7 58.4192 221.304 59.7753 221.304 61.4626V72.4691H216.618V58.0881C216.618 55.6912 216.57 53.4836 216.491 51.4967H220.56L220.734 55.5178H220.861C221.352 54.1459 222.128 53.0263 223.204 52.2063C224.249 51.4494 225.374 51.0867 226.593 51.0867C227.02 51.0867 227.416 51.1025 227.749 51.1656V55.5966H227.765ZM228.477 30.272V36.753H225.738V21H228.477V27.4179H228.525C228.857 26.9133 229.332 26.4875 229.886 26.2037C230.44 25.8883 231.09 25.7149 231.786 25.7149C233.639 25.7149 235.571 26.9291 235.571 30.3982V36.7687H232.831V30.6978C232.831 29.1524 232.245 27.9383 230.741 27.9383C229.665 27.9383 228.92 28.6478 228.604 29.4678C228.493 29.6886 228.477 29.9882 228.477 30.272ZM247.794 63.1183H233.75C233.813 65.184 234.478 66.7609 235.792 67.8489C236.98 68.8266 238.5 69.3154 240.384 69.3154C242.474 69.3154 244.358 68.9842 246.068 68.322L246.812 71.5703C244.833 72.4376 242.458 72.8633 239.751 72.8633C236.489 72.8633 233.924 71.9172 232.071 69.9934C230.203 68.0854 229.269 65.5151 229.269 62.2983C229.269 59.1288 230.14 56.4954 231.865 54.3982C233.702 52.159 236.156 51.0394 239.244 51.0394C242.284 51.0394 244.58 52.159 246.132 54.3982C247.367 56.18 248 58.3877 248 61.0053C247.952 61.8252 247.905 62.5348 247.794 63.1183ZM151.05 27.8279C149.942 27.8279 148.913 28.6321 148.628 29.8305C148.58 30.0355 148.533 30.272 148.533 30.5401V32.2904C148.533 32.5112 148.548 32.7319 148.596 32.9369C148.881 34.0408 149.847 34.845 151.019 34.845C152.729 34.845 153.789 33.4888 153.789 31.297C153.789 29.389 152.871 27.8279 151.05 27.8279ZM170.763 27.5598C169.069 27.5598 168.356 29.0894 168.246 30.1932H173.012C173.043 29.1998 172.6 27.5598 170.763 27.5598ZM189.178 27.6702C187.246 27.6702 186.454 29.5624 186.454 31.3601C186.454 33.4415 187.499 35.0184 189.146 35.0184C190.698 35.0184 191.79 33.5046 191.79 31.3128C191.806 29.6255 191.046 27.6702 189.178 27.6702ZM136.452 33.4888C136.452 34.5611 137.148 35.0499 138.003 35.0499C139.112 35.0499 139.903 34.3404 140.172 33.5677C140.236 33.3627 140.236 33.1735 140.236 32.9685V31.4862C138.304 31.4389 136.452 31.8489 136.452 33.4888ZM243.028 27.5598C241.334 27.5598 240.622 29.0894 240.511 30.1932H245.277C245.292 29.1998 244.849 27.5598 243.028 27.5598Z" fill="#D2DAE2"/>
<path d="M270.375 94H13.6077C6.09881 94 0 88.3239 0 81.3518V12.6646C0 5.67609 6.09881 0 13.6077 0H270.375C277.884 0 283.982 5.67609 283.982 12.6646V81.3354C284 88.3239 277.884 94 270.375 94ZM13.6077 3.28098C8.05536 3.28098 3.52532 7.49703 3.52532 12.6646V81.3354C3.52532 86.503 8.05536 90.7026 13.6077 90.7026H270.375C275.945 90.7026 280.457 86.503 280.457 81.3354V12.6646C280.457 7.48063 275.927 3.28098 270.375 3.28098H13.6077Z" fill="#D2DAE2"/>
</svg>
