<svg width="284" height="95" viewBox="0 0 284 95" fill="none" xmlns="http://www.w3.org/2000/svg">
<g clip-path="url(#clip0)">
<path d="M269.925 95H14.0745C6.31443 95 0 88.6943 0 80.9616V14.055C0 6.30568 6.31443 0 14.0745 0H269.942C277.702 0 284.017 6.30568 284.017 14.055V80.9616C284 88.6943 277.686 95 269.925 95ZM14.0745 3.31878C8.1423 3.31878 3.32339 8.13101 3.32339 14.055V80.9616C3.32339 86.8856 8.1423 91.6978 14.0745 91.6978H269.942C275.874 91.6978 280.693 86.8856 280.693 80.9616V14.055C280.693 8.13101 275.874 3.31878 269.942 3.31878H14.0745Z" fill="#D2DAE2"/>
<path d="M94.3676 27.7284H92.4732C92.4732 27.4629 92.2904 26.7327 91.9415 25.5214H89.2329C88.8674 26.7161 88.6846 27.4463 88.6846 27.7284H86.9066C86.9066 27.579 87.3718 26.3179 88.2858 23.9616C89.1997 21.6052 89.665 20.3109 89.665 20.062H91.8916C91.8916 20.2777 92.3071 21.572 93.1379 23.8952C93.9521 26.2515 94.3676 27.5127 94.3676 27.7284ZM91.659 24.4096C90.9943 22.3851 90.6454 21.2899 90.6454 21.124H90.5457C90.5457 21.2733 90.1967 22.3685 89.4988 24.4096H91.659Z" fill="#D2DAE2"/>
<path d="M101.978 27.7284H100.516C100.516 27.5624 99.9675 26.7161 98.8874 25.1729C97.7574 23.5467 97.1094 22.4515 96.9598 21.8541H96.8767C96.9764 22.717 97.0263 23.4969 97.0263 24.1773C97.0263 25.1397 97.0595 26.3345 97.1094 27.7284H95.6637C95.7302 26.517 95.7468 25.1729 95.7468 23.7127C95.7468 22.2856 95.7135 21.0576 95.6637 20.062H97.4085C97.4085 20.2777 97.8904 21.1074 98.8708 22.5511C99.901 24.0943 100.499 25.1397 100.649 25.6873H100.732C100.632 24.8078 100.582 24.0279 100.582 23.331C100.582 22.269 100.549 21.1738 100.499 20.062H101.978C101.928 21.041 101.895 22.2524 101.895 23.7127C101.895 25.1895 101.928 26.5336 101.978 27.7284Z" fill="#D2DAE2"/>
<path d="M110.519 23.6297C110.519 24.7415 110.154 25.7205 109.439 26.5502C108.725 27.3799 107.728 27.7947 106.431 27.7947C105.85 27.7947 105.052 27.7782 104.022 27.7284C104.072 26.5502 104.105 25.2061 104.105 23.7127C104.105 22.2856 104.072 21.0576 104.022 20.062H105.052C105.218 20.062 105.468 20.062 105.8 20.0454C106.132 20.0288 106.348 20.0288 106.448 20.0288C107.861 20.0288 108.891 20.3773 109.539 21.0908C110.203 21.8044 110.519 22.6506 110.519 23.6297ZM108.907 23.8786C108.907 23.1319 108.691 22.4847 108.243 21.9703C107.811 21.4559 107.129 21.1904 106.232 21.1904C106.066 21.1904 105.833 21.207 105.534 21.2402C105.567 22.0201 105.601 22.8498 105.601 23.6961C105.601 24.6419 105.617 25.5712 105.667 26.4838C105.916 26.5336 106.182 26.5668 106.431 26.5668C107.279 26.5668 107.91 26.3013 108.309 25.7869C108.708 25.2725 108.907 24.6419 108.907 23.8786Z" fill="#D2DAE2"/>
<path d="M118.396 27.7284H116.651C116.202 26.3345 115.853 25.4882 115.604 25.1563C115.355 24.8244 114.973 24.6751 114.424 24.6751C114.192 24.6751 113.976 24.6751 113.776 24.6751C113.776 25.6873 113.793 26.6995 113.826 27.7284H112.181C112.231 26.5502 112.264 25.2061 112.264 23.7127C112.264 22.2856 112.231 21.0576 112.181 20.062H113.195C113.311 20.062 113.56 20.062 113.942 20.0454C114.324 20.0288 114.657 20.0288 114.989 20.0288C116.8 20.0288 117.698 20.6428 117.698 21.8707C117.698 22.8498 117.183 23.5301 116.152 23.9118V23.9947C116.551 24.1109 116.9 24.4096 117.199 24.924C117.482 25.4384 117.897 26.3843 118.396 27.7284ZM116.186 22.3188C116.186 21.5389 115.687 21.1406 114.673 21.1406C114.308 21.1406 113.976 21.1738 113.693 21.2236C113.743 21.8375 113.76 22.6175 113.76 23.5965C113.976 23.5965 114.158 23.6131 114.308 23.6131C115.571 23.6131 116.186 23.1816 116.186 22.3188Z" fill="#D2DAE2"/>
<path d="M126.854 23.7624C126.854 24.9738 126.488 25.9694 125.74 26.7659C125.009 27.5624 124.095 27.9607 122.999 27.9607C121.968 27.9607 121.088 27.5956 120.39 26.8655C119.692 26.1354 119.343 25.2061 119.343 24.0943C119.343 22.883 119.708 21.8873 120.456 21.0908C121.187 20.2943 122.101 19.8961 123.198 19.8961C124.228 19.8961 125.109 20.2611 125.807 20.9913C126.505 21.7048 126.854 22.634 126.854 23.7624ZM125.225 23.9284C125.225 23.1153 125.009 22.4349 124.594 21.9371C124.178 21.4227 123.647 21.1738 123.032 21.1738C122.45 21.1738 121.968 21.4227 121.569 21.9371C121.171 22.4515 120.971 23.0987 120.971 23.8786C120.971 24.6917 121.187 25.3554 121.603 25.8699C122.018 26.3843 122.55 26.6332 123.148 26.6332C123.73 26.6332 124.212 26.3677 124.61 25.8533C125.026 25.3554 125.225 24.7083 125.225 23.9284Z" fill="#D2DAE2"/>
<path d="M130.177 27.7284H128.515C128.565 26.517 128.598 25.1729 128.598 23.7127C128.598 22.2856 128.565 21.0576 128.515 20.062H130.177C130.127 21.0576 130.094 22.269 130.094 23.7127C130.111 25.2061 130.127 26.5336 130.177 27.7284Z" fill="#D2DAE2"/>
<path d="M138.718 23.6297C138.718 24.7415 138.353 25.7205 137.638 26.5502C136.924 27.3799 135.927 27.7947 134.63 27.7947C134.049 27.7947 133.251 27.7782 132.221 27.7284C132.271 26.5502 132.304 25.2061 132.304 23.7127C132.304 22.2856 132.271 21.0576 132.221 20.062H133.251C133.417 20.062 133.667 20.062 133.999 20.0454C134.331 20.0288 134.547 20.0288 134.647 20.0288C136.059 20.0288 137.09 20.3773 137.738 21.0908C138.402 21.8044 138.718 22.6506 138.718 23.6297ZM137.123 23.8786C137.123 23.1319 136.907 22.4847 136.458 21.9703C136.026 21.4559 135.345 21.1904 134.448 21.1904C134.281 21.1904 134.049 21.207 133.75 21.2402C133.783 22.0201 133.816 22.8498 133.816 23.6961C133.816 24.6419 133.833 25.5712 133.883 26.4838C134.132 26.5336 134.398 26.5668 134.647 26.5668C135.494 26.5668 136.126 26.3013 136.525 25.7869C136.907 25.2725 137.123 24.6419 137.123 23.8786Z" fill="#D2DAE2"/>
<path d="M150.068 27.7284H148.173C148.173 27.4629 147.99 26.7327 147.641 25.5214H144.916C144.551 26.7161 144.368 27.4463 144.368 27.7284H142.59C142.59 27.579 143.055 26.3179 143.969 23.9616C144.883 21.6052 145.348 20.3109 145.348 20.062H147.575C147.575 20.2777 147.99 21.572 148.821 23.8952C149.652 26.2515 150.068 27.5127 150.068 27.7284ZM147.342 24.4096C146.678 22.3851 146.329 21.2899 146.329 21.124H146.229C146.229 21.2733 145.88 22.3685 145.182 24.4096H147.342Z" fill="#D2DAE2"/>
<path d="M156.93 22.0699C156.93 23.0157 156.581 23.6961 155.883 24.1441C155.186 24.5921 154.338 24.8079 153.324 24.8079C153.142 24.8079 153.009 24.8079 152.926 24.7913C152.926 25.5214 152.942 26.5004 152.992 27.7118H151.33C151.38 26.5834 151.414 25.2393 151.414 23.6961C151.414 22.2856 151.38 21.0576 151.33 20.0454H152.361C152.51 20.0454 152.793 20.0454 153.192 20.0288C153.59 20.0122 153.956 20.0122 154.272 20.0122C155.019 20.0122 155.651 20.1782 156.166 20.5266C156.681 20.8751 156.93 21.3895 156.93 22.0699ZM155.418 22.4017C155.418 21.5555 154.853 21.1406 153.74 21.1406C153.457 21.1406 153.158 21.1738 152.859 21.2236C152.909 21.9703 152.926 22.8 152.926 23.7458C153.025 23.7458 153.142 23.7624 153.275 23.7624C154.704 23.7624 155.418 23.2978 155.418 22.4017Z" fill="#D2DAE2"/>
<path d="M164.009 22.0699C164.009 23.0157 163.66 23.6961 162.962 24.1441C162.264 24.5921 161.417 24.8079 160.387 24.8079C160.204 24.8079 160.071 24.8079 159.988 24.7913C159.988 25.5214 160.004 26.5004 160.054 27.7118H158.393C158.442 26.5834 158.476 25.2393 158.476 23.6961C158.476 22.2856 158.442 21.0576 158.393 20.0454H159.423C159.572 20.0454 159.855 20.0454 160.254 20.0288C160.653 20.0122 161.018 20.0122 161.334 20.0122C162.082 20.0122 162.713 20.1782 163.228 20.5266C163.743 20.8751 164.009 21.3895 164.009 22.0699ZM162.48 22.4017C162.48 21.5555 161.915 21.1406 160.802 21.1406C160.52 21.1406 160.22 21.1738 159.921 21.2236C159.971 21.9703 159.988 22.8 159.988 23.7458C160.088 23.7458 160.204 23.7624 160.337 23.7624C161.766 23.7624 162.48 23.2978 162.48 22.4017Z" fill="#D2DAE2"/>
<path d="M175.558 23.7624C175.558 24.9738 175.192 25.9694 174.445 26.7659C173.713 27.5624 172.799 27.9607 171.703 27.9607C170.673 27.9607 169.792 27.5956 169.094 26.8655C168.396 26.1354 168.047 25.2061 168.047 24.0943C168.047 22.883 168.413 21.8873 169.16 21.0908C169.892 20.2943 170.805 19.8961 171.902 19.8961C172.932 19.8961 173.813 20.2611 174.511 20.9913C175.209 21.7048 175.558 22.634 175.558 23.7624ZM173.946 23.9284C173.946 23.1153 173.73 22.4349 173.315 21.9371C172.899 21.4227 172.367 21.1738 171.753 21.1738C171.171 21.1738 170.689 21.4227 170.29 21.9371C169.892 22.4515 169.692 23.0987 169.692 23.8786C169.692 24.6917 169.908 25.3554 170.324 25.8699C170.739 26.3843 171.271 26.6332 171.869 26.6332C172.451 26.6332 172.932 26.3677 173.331 25.8533C173.73 25.3554 173.946 24.7083 173.946 23.9284Z" fill="#D2DAE2"/>
<path d="M183.551 27.7284H182.088C182.088 27.5624 181.54 26.7161 180.46 25.1729C179.33 23.5467 178.682 22.4515 178.532 21.8541H178.433C178.532 22.717 178.582 23.4969 178.582 24.1773C178.582 25.1397 178.615 26.3345 178.665 27.7284H177.22C177.286 26.517 177.303 25.1729 177.303 23.7127C177.303 22.2856 177.269 21.0576 177.22 20.062H178.964C178.964 20.2777 179.446 21.1074 180.427 22.5511C181.457 24.0943 182.055 25.1397 182.205 25.6873H182.288C182.188 24.8078 182.138 24.0279 182.138 23.331C182.138 22.269 182.105 21.1738 182.055 20.062H183.534C183.484 21.041 183.451 22.2524 183.451 23.7127C183.468 25.1895 183.501 26.5336 183.551 27.7284Z" fill="#D2DAE2"/>
<path d="M114.009 52.2873C114.009 56.0873 112.879 59.124 110.619 61.3808C108.06 64.069 104.72 65.4131 100.599 65.4131C96.6607 65.4131 93.3207 64.0524 90.5623 61.331C87.8039 58.6096 86.4247 55.2245 86.4247 51.1921C86.4247 47.1598 87.8039 43.7747 90.5623 41.0533C93.3207 38.3319 96.6607 36.9712 100.599 36.9712C102.56 36.9712 104.421 37.3528 106.199 38.1162C107.977 38.8795 109.406 39.8917 110.469 41.1528L108.077 43.5424C106.265 41.3852 103.789 40.3066 100.616 40.3066C97.7408 40.3066 95.2649 41.3188 93.1711 43.3266C91.0774 45.3345 90.0305 47.9563 90.0305 51.1756C90.0305 54.3948 91.0774 57.0166 93.1711 59.0245C95.2649 61.0323 97.7408 62.0445 100.616 62.0445C103.656 62.0445 106.199 61.0323 108.226 59.0079C109.539 57.6969 110.303 55.855 110.519 53.4987H100.616V50.2297H113.843C113.959 50.9432 114.009 51.6236 114.009 52.2873Z" fill="#D2DAE2"/>
<path d="M118.163 48.3878C119.958 46.4961 122.267 45.5502 125.059 45.5502C127.851 45.5502 130.144 46.4961 131.955 48.3878C133.75 50.2795 134.664 52.6358 134.664 55.49C134.664 58.3275 133.766 60.7004 131.955 62.5922C130.144 64.4839 127.851 65.4297 125.059 65.4297C122.267 65.4297 119.974 64.4839 118.163 62.5922C116.368 60.7004 115.454 58.3441 115.454 55.49C115.454 52.6358 116.368 50.2795 118.163 48.3878ZM120.772 60.3686C121.985 61.5965 123.397 62.2105 125.059 62.2105C126.704 62.2105 128.133 61.5965 129.346 60.3686C130.559 59.1406 131.157 57.5144 131.157 55.4734C131.157 53.4489 130.559 51.8227 129.346 50.5782C128.133 49.3502 126.704 48.7363 125.059 48.7363C123.414 48.7363 121.985 49.3502 120.772 50.5782C119.559 51.8061 118.961 53.4323 118.961 55.4734C118.961 57.5144 119.575 59.1406 120.772 60.3686Z" fill="#D2DAE2"/>
<path d="M138.552 48.3878C140.347 46.4961 142.656 45.5502 145.448 45.5502C148.24 45.5502 150.533 46.4961 152.344 48.3878C154.139 50.2795 155.053 52.6358 155.053 55.49C155.053 58.3275 154.155 60.7004 152.344 62.5922C150.533 64.4839 148.24 65.4297 145.448 65.4297C142.656 65.4297 140.363 64.4839 138.552 62.5922C136.741 60.7004 135.843 58.3441 135.843 55.49C135.843 52.6358 136.741 50.2795 138.552 48.3878ZM141.161 60.3686C142.374 61.5965 143.786 62.2105 145.448 62.2105C147.093 62.2105 148.522 61.5965 149.735 60.3686C150.948 59.1406 151.546 57.5144 151.546 55.4734C151.546 53.4489 150.948 51.8227 149.735 50.5782C148.522 49.3502 147.093 48.7363 145.448 48.7363C143.803 48.7363 142.374 49.3502 141.161 50.5782C139.948 51.8061 139.35 53.4323 139.35 55.4734C139.35 57.5144 139.948 59.1406 141.161 60.3686Z" fill="#D2DAE2"/>
<path d="M165.405 73.6271C163.195 73.6271 161.384 73.0795 159.988 71.9677C158.592 70.8559 157.595 69.5948 156.98 68.1843L160.187 66.8568C160.536 67.869 161.201 68.7153 162.148 69.4123C163.095 70.0926 164.192 70.4411 165.405 70.4411C167.333 70.4411 168.845 69.8603 169.958 68.7153C171.071 67.5537 171.62 65.9939 171.62 64.0192V62.2271H171.47C170.855 63.1398 169.991 63.9031 168.878 64.5171C167.765 65.131 166.502 65.4297 165.106 65.4297C162.696 65.4297 160.603 64.4839 158.858 62.5756C157.113 60.6673 156.232 58.3109 156.232 55.5066C156.232 52.7022 157.113 50.3293 158.858 48.4376C160.603 46.5293 162.696 45.5834 165.106 45.5834C166.502 45.5834 167.765 45.8821 168.878 46.4961C169.991 47.1101 170.855 47.8734 171.47 48.7861H171.62V46.1974H174.976V63.8865C174.976 67.0891 174.046 69.5118 172.201 71.1712C170.324 72.7974 168.064 73.6271 165.405 73.6271ZM165.671 62.2105C167.316 62.2105 168.728 61.5965 169.875 60.3852C171.038 59.1738 171.603 57.531 171.603 55.4734C171.603 53.4158 171.021 51.7895 169.875 50.5616C168.712 49.3502 167.316 48.7363 165.671 48.7363C164.042 48.7363 162.647 49.3502 161.483 50.5782C160.32 51.8061 159.739 53.4323 159.739 55.4734C159.739 57.4978 160.32 59.124 161.483 60.3686C162.647 61.5965 164.042 62.2105 165.671 62.2105Z" fill="#D2DAE2"/>
<path d="M181.789 64.7991H178.283V37.5686H181.789V64.7991Z" fill="#D2DAE2"/>
<path d="M193.355 65.4131C190.53 65.4131 188.237 64.4673 186.475 62.5922C184.714 60.717 183.833 58.3441 183.833 55.4734C183.833 52.752 184.697 50.4288 186.409 48.4708C188.12 46.5127 190.314 45.5502 192.972 45.5502C195.747 45.5502 197.958 46.4463 199.619 48.255C201.281 50.0472 202.112 52.4699 202.112 55.49L202.079 56.1371H187.339C187.439 58.0122 188.07 59.5057 189.217 60.5843C190.38 61.6795 191.726 62.2271 193.272 62.2271C195.781 62.2271 197.492 61.1651 198.373 59.0245L201.497 60.3188C200.882 61.7625 199.885 62.9738 198.489 63.9529C197.11 64.9153 195.399 65.4131 193.355 65.4131ZM198.39 53.2332C198.306 52.1712 197.825 51.159 196.927 50.1965C196.03 49.2341 194.684 48.7528 192.906 48.7528C191.61 48.7528 190.48 49.1511 189.533 49.9642C188.586 50.7773 187.921 51.8725 187.572 53.2332H198.39Z" fill="#D2DAE2"/>
<path d="M215.92 64.7991H212.414V37.5686H221.703C224.013 37.5686 226.007 38.3319 227.702 39.8751C229.397 41.4184 230.228 43.3432 230.228 45.683C230.228 48.0227 229.38 49.9476 227.702 51.4908C226.007 53.0175 224.013 53.7974 221.703 53.7974H215.92V64.7991ZM215.92 50.4288H221.786C223.265 50.4288 224.445 49.931 225.326 48.952C226.223 47.9563 226.655 46.8777 226.655 45.683C226.655 44.4882 226.206 43.393 225.326 42.414C224.428 41.4184 223.248 40.9371 221.786 40.9371H215.92V50.4288Z" fill="#D2DAE2"/>
<path d="M236.027 64.7991H232.521V37.5686H236.027V64.7991Z" fill="#D2DAE2"/>
<path d="M245.05 65.4131C243.072 65.4131 241.411 64.8489 240.081 63.7039C238.752 62.5589 238.087 61.0489 238.087 59.1738C238.087 57.1493 238.868 55.5563 240.447 54.3948C242.026 53.2332 243.97 52.669 246.28 52.669C248.34 52.669 250.018 53.0507 251.348 53.814V53.2664C251.348 51.8891 250.882 50.7939 249.935 49.9808C248.988 49.1511 247.842 48.7362 246.462 48.7362C245.449 48.7362 244.518 48.9852 243.704 49.4664C242.873 49.9476 242.308 50.6114 242.009 51.4411L238.802 50.0638C239.234 48.952 240.081 47.9066 241.361 46.9607C242.624 46.0149 244.302 45.5336 246.396 45.5336C248.789 45.5336 250.766 46.2306 252.345 47.6245C253.923 49.0183 254.704 50.993 254.704 53.5153V64.7825H251.348V62.1939H251.198C249.786 64.3511 247.742 65.4131 245.05 65.4131ZM245.632 62.2105C247.077 62.2105 248.39 61.6629 249.57 60.6009C250.75 59.5223 251.348 58.2445 251.348 56.7843C250.351 55.9712 248.872 55.5729 246.894 55.5729C245.199 55.5729 243.903 55.938 243.039 56.6681C242.175 57.3983 241.743 58.2611 241.743 59.2568C241.743 60.1694 242.142 60.8996 242.923 61.4306C243.704 61.945 244.601 62.2105 245.632 62.2105Z" fill="#D2DAE2"/>
<path d="M262.315 73.0131H258.692L263.029 63.621L255.336 46.1642H259.141L264.708 59.5555H264.791L270.191 46.1642H273.997L262.315 73.0131Z" fill="#D2DAE2"/>
<path d="M21.0703 50.7275C21.0703 42.0323 21.0703 33.3205 21.0703 24.6253C21.0703 23.5633 21.2697 22.5843 22.0341 21.7712C22.3332 21.4559 22.5326 21.3729 22.8981 21.738C28.7639 27.7118 34.6297 33.669 40.5121 39.6262C44.3174 43.4926 48.1226 47.3424 51.9445 51.1922C52.3101 51.5572 52.3433 51.7563 51.9611 52.1546C42.6224 61.4306 33.2837 70.7232 23.9782 80.0323C23.4133 80.5965 23.0145 80.5467 22.4661 80.1153C21.4691 79.352 21.0869 78.3232 21.0869 77.0952C21.0869 71.9345 21.0869 66.7904 21.0703 61.6297C21.0537 58.0122 21.0537 54.3616 21.0703 50.7275C21.0537 50.7275 21.0703 50.7275 21.0703 50.7275Z" fill="#D2DAE2"/>
<path d="M24.4103 20.7755C25.1248 20.7755 25.6233 20.9747 26.1052 21.2402C38.0362 27.9109 49.9671 34.5983 61.8981 41.2524C62.4464 41.5511 62.4298 41.7336 62.0144 42.1485C59.3391 44.7703 56.697 47.4087 54.0549 50.0638C53.7724 50.3458 53.5896 50.5118 53.2074 50.1301C43.7192 40.4559 34.2143 30.8148 24.7094 21.1572C24.6429 21.0742 24.5764 20.9747 24.4103 20.7755Z" fill="#D2DAE2"/>
<path d="M27.0856 79.8166C35.743 71.0716 44.4171 62.3432 53.0579 53.5817C53.5896 53.0341 53.8389 53.117 54.3208 53.6148C56.5142 55.9048 58.7409 58.145 60.9841 60.3851C61.3829 60.7834 61.4162 60.9328 60.8844 61.2314C49.7677 67.3048 38.651 73.4114 27.5509 79.5013C27.3515 79.5843 27.1853 79.7502 27.0856 79.8166Z" fill="#D2DAE2"/>
<path d="M76.5542 50.9598C76.521 51.9388 76.0557 52.6358 75.3578 53.1502C74.8427 53.5319 74.2611 53.8471 73.6961 54.1624C70.3395 56.0209 66.9662 57.8629 63.6096 59.7214C63.161 59.9703 62.8951 59.9703 62.5129 59.572C60.1201 57.1161 57.7106 54.6602 55.3011 52.2375C54.9522 51.8891 54.9356 51.6899 55.3011 51.3415C58.126 48.5703 60.9343 45.7659 63.7259 42.9616C64.0583 42.6297 64.2909 42.5965 64.7063 42.8288C68.0297 44.7039 71.3697 46.5624 74.6931 48.4209C75.7068 49.0017 76.521 49.7485 76.5542 50.9598Z" fill="#D2DAE2"/>
</g>
<defs>
<clipPath id="clip0">
<rect width="284" height="95" fill="white"/>
</clipPath>
</defs>
</svg>
