<svg width="176" height="140" viewBox="0 0 176 140" fill="none" xmlns="http://www.w3.org/2000/svg">
<g clip-path="url(#clip0)">
<path d="M105.511 122.924C105.65 123.68 103.191 125.102 102.591 125.538C101.094 126.625 99.5597 127.656 97.988 128.632C90.0848 133.494 81.3536 136.88 72.2251 138.621C71.9447 138.674 71.6554 138.657 71.3833 138.571C71.1112 138.486 70.8646 138.334 70.6658 138.131C66.9473 134.393 64.8654 129.346 64.8734 124.09C64.8743 123.185 64.9352 122.282 65.0556 121.385C65.093 121.142 65.2089 120.918 65.3857 120.746C65.5626 120.574 65.7909 120.464 66.0362 120.432C75.1269 119.119 83.7653 115.649 91.2204 110.315C91.3036 110.254 91.3998 110.213 91.5015 110.195C91.6033 110.177 91.7079 110.182 91.8073 110.21C91.9067 110.238 91.9983 110.289 92.0749 110.358C92.1515 110.427 92.2111 110.513 92.2492 110.608C92.7408 111.881 93.3602 113.101 94.0978 114.25C95.763 116.846 98.0095 119.023 100.662 120.613C102.047 121.444 103.527 122.105 105.072 122.583C105.35 122.647 105.484 122.77 105.511 122.924Z" fill="#D2DAE2"/>
<path d="M131.049 87.9519C129.881 91.7963 127.132 96.1731 125.396 99.4371C121.432 106.873 116.26 113.607 110.087 119.367C109.986 119.464 109.862 119.535 109.726 119.574C109.591 119.613 109.448 119.619 109.31 119.591C107.504 119.228 105.757 118.618 104.118 117.78C100.062 115.704 96.8309 112.327 94.9498 108.196C94.8764 108.026 94.8602 107.836 94.9036 107.656C94.947 107.476 95.0478 107.314 95.1909 107.195L95.4374 106.982C102.376 100.981 107.765 93.4147 111.153 84.9169C111.186 84.8349 111.237 84.7616 111.302 84.7027C111.368 84.6438 111.447 84.6011 111.532 84.5778C111.618 84.5545 111.707 84.5514 111.794 84.5687C111.881 84.5859 111.962 84.6231 112.032 84.6773C114.282 86.3496 116.856 87.5391 119.593 88.1702C122.83 88.9221 126.205 88.8544 129.409 87.9732C129.953 87.8996 130.504 87.8924 131.049 87.9519Z" fill="#D2DAE2"/>
<path d="M135.105 67.3936C135.105 72.5372 133.798 80.8809 132.474 83.3675C131.971 84.3099 125.021 84.672 121.527 84.2939C119.678 84.0512 117.881 83.5117 116.206 82.6966C115.358 82.3055 114.538 81.8572 113.752 81.3547C113.57 81.24 113.429 81.0696 113.352 80.8691C113.275 80.6685 113.265 80.4485 113.324 80.2419C113.324 80.1567 113.372 80.0768 113.393 79.997C115.81 71.1421 115.633 61.8507 115.445 52.7509C115.436 52.6951 115.439 52.6379 115.452 52.5829C115.466 52.528 115.491 52.4765 115.526 52.4315C115.59 52.3738 115.67 52.3382 115.756 52.3303C117.332 51.9895 121.65 51.3293 123.386 50.7915C125.278 50.2111 128.423 48.8427 130.036 47.3891C130.952 46.5637 131.756 46.4466 132.18 47.6553C134.044 53.129 135.078 61.7069 135.105 67.3936Z" fill="#D2DAE2"/>
<path d="M128.809 41.9739C128.693 42.4482 128.444 42.8802 128.091 43.2199C126.225 45.1079 123.961 46.5625 121.463 47.4796C120.965 47.6712 114.454 49.5136 114.347 48.864C114.256 48.3315 114.154 47.7671 114.042 47.224C113.849 46.2922 113.64 45.371 113.404 44.4605C111.319 36.3571 107.465 28.8091 102.114 22.3527C102.085 22.3194 102.064 22.2806 102.051 22.2388C102.039 22.197 102.035 22.153 102.04 22.1096C102.045 22.0661 102.059 22.0242 102.081 21.9864C102.103 21.9485 102.132 21.9155 102.167 21.8895C102.451 21.6765 102.73 21.4529 103.009 21.2239C105.175 19.4026 106.93 17.1472 108.158 14.6054C108.177 14.5658 108.205 14.5313 108.24 14.5049C108.275 14.4786 108.316 14.4613 108.359 14.4544C108.403 14.4476 108.447 14.4515 108.489 14.4657C108.53 14.48 108.568 14.5042 108.597 14.5362C110.157 16.1336 111.754 17.5393 113.345 19.0408C114.454 20.1057 115.488 21.2452 116.528 22.374C119.459 25.5797 122.08 29.0525 124.356 32.7464C125.428 34.5035 126.446 36.2979 127.378 38.1349C128.107 39.5938 129.061 40.7599 128.809 41.9739Z" fill="#D2DAE2"/>
<path d="M104.959 11.5704C104.051 13.8691 102.715 15.9771 101.021 17.7842C100.594 18.2469 100.143 18.6876 99.6705 19.1047C99.6045 19.1685 99.516 19.2041 99.424 19.2041C99.3319 19.2041 99.2435 19.1685 99.1775 19.1047C98.6417 18.5722 98.1058 17.9972 97.5325 17.47C92.8479 12.9829 87.4304 9.31891 81.5111 6.63446C81.1735 6.48004 80.8305 6.32563 80.4822 6.18186L80.3965 6.14459L80.0482 5.95291C79.7353 5.78388 79.4528 5.56435 79.2123 5.3033C78.6901 4.75007 78.3803 4.03192 78.3372 3.27459C78.2941 2.51725 78.5204 1.76898 78.9766 1.16076C79.1833 0.855581 79.4515 0.596297 79.7641 0.399261C80.0767 0.202226 80.4271 0.0717185 80.793 0.0159698C81.3737 -0.0338395 81.9586 0.0129463 82.5238 0.154407C89.6182 1.6027 96.3858 5.61746 102.28 9.64819C103.034 10.1665 103.782 10.6989 104.525 11.2456L104.959 11.5704Z" fill="#D2DAE2"/>
<path d="M65.5325 138.339C65.6115 138.429 65.6635 138.54 65.6828 138.658C65.702 138.776 65.6878 138.897 65.6416 139.008C65.5954 139.118 65.5191 139.214 65.4213 139.284C65.3235 139.354 65.208 139.395 65.0877 139.404C63.4802 139.515 60.994 139.936 60.3349 139.968C57.7053 140.059 55.0727 140.016 52.4474 139.84C44.6546 139.328 36.9869 137.631 29.712 134.809C28.3438 134.276 26.9989 133.706 25.6772 133.099C25.4754 133.008 25.2985 132.87 25.1615 132.697C25.0244 132.523 24.9312 132.32 24.8895 132.104C24.2981 128.715 24.5877 125.233 25.7308 121.987C26.6348 119.437 28.0513 117.096 29.8942 115.107C30.093 114.89 30.359 114.745 30.6501 114.695C30.9413 114.645 31.2409 114.693 31.5017 114.831C33.192 115.692 34.925 116.469 36.6939 117.157C43.3767 119.755 50.4905 121.084 57.6665 121.076C58.6631 121.076 59.6544 121.05 60.635 121.002C60.7606 120.993 60.8865 121.013 61.0031 121.06C61.1197 121.108 61.2237 121.181 61.3071 121.275C61.3906 121.368 61.4512 121.48 61.4842 121.601C61.5173 121.721 61.5219 121.848 61.4977 121.971C61.2428 123.247 61.1154 124.546 61.1172 125.847C61.1145 130.404 62.68 134.825 65.5539 138.376L65.5325 138.339Z" fill="#D2DAE2"/>
<path d="M143.812 22.6403C143.752 20.2587 143.392 17.894 142.741 15.6011C142.141 13.4713 141.096 11.3734 141.332 9.11042C141.406 8.40788 141.562 7.71635 141.798 7.04979C141.991 6.51733 142.73 5.29267 142.687 5.2341C142.011 5.8409 141.367 6.48251 140.758 7.15629C140.592 7.332 140.426 7.51304 140.271 7.68875C136.812 11.5892 134.332 16.2473 133.031 21.2825C132.989 21.4635 132.94 21.6499 132.898 21.8149C131.817 26.3566 131.709 31.0733 132.581 35.6589C132.64 35.8453 132.705 36.0263 132.764 36.1914C132.784 36.1525 132.8 36.1114 132.812 36.0689V36.3245C133.305 37.7775 133.901 39.1939 134.596 40.5629L134.698 40.4511C134.671 40.5043 134.65 40.5629 134.623 40.6161C135.068 41.4841 135.561 42.3253 136.08 43.1507C135.973 43.8375 135.871 44.5244 135.764 45.2166C134.907 50.7968 134.023 56.5634 134.328 60.4024L134.864 60.3598C134.564 56.5847 135.443 50.8447 136.295 45.2965L136.616 43.1666C137.152 42.4531 138.224 41.0847 138.358 40.8877C141.993 35.4944 143.896 29.1313 143.812 22.6403Z" fill="#D2DAE2"/>
<path d="M168.354 17.4488C168.07 17.5073 167.786 17.5659 167.502 17.6351C160.178 19.321 153.645 23.4221 148.968 29.2702C144.29 35.1182 141.744 42.3682 141.744 49.8384V49.9129C141.744 50.062 141.744 50.2111 141.744 50.3602C138.151 53.3309 135.406 57.1866 133.782 61.5419L134.291 61.7123C135.876 57.5334 138.501 53.8219 141.921 50.9246L142.65 50.7542C143.448 50.5466 144.257 50.3123 145.013 50.046C155.51 46.4839 163.858 37.6077 166.446 26.8574C166.719 25.5048 167.066 24.168 167.486 22.8532C168.557 19.946 173.857 17.1825 174.987 16.8151C175.014 16.3359 170.502 17.0175 168.354 17.4488Z" fill="#D2DAE2"/>
<path d="M171.81 52.5912C167.919 49.8619 163.268 48.4064 158.505 48.4274C153.742 48.4484 149.104 49.9449 145.238 52.7083C144.549 53.2015 143.891 53.7349 143.266 54.3057L142.966 54.5879C138.936 55.4345 135.421 59.3801 134.28 63.0328L134.816 63.1925C135.887 59.7901 139.076 56.1161 142.773 55.1736C144.494 56.36 146.374 57.3026 148.356 57.9744C153.137 59.5717 158.311 59.5717 163.092 57.9744C165.222 57.1718 167.402 56.5049 169.618 55.9776C171.108 55.6688 172.646 55.6688 174.135 55.9776C174.51 56.0575 174.88 56.1587 175.25 56.2705C175.459 56.3397 175.882 56.3876 176.027 56.558C174.797 55.0627 173.38 53.7296 171.81 52.5912Z" fill="#D2DAE2"/>
<path d="M54.2371 59.7315C54.2371 58.6187 54.6765 52.1173 50.4863 48.1345C48.5718 46.2598 46.0951 45.0555 43.4307 44.7039C40.7663 44.3523 38.0592 44.8725 35.7187 46.1857C29.2405 49.7053 27.4561 58.3471 30.3603 64.726C31.3316 66.7989 32.5729 68.7359 34.0522 70.4872C34.9373 71.5312 35.7517 72.6322 36.4903 73.7832C37.1386 74.8481 37.653 76.1047 38.3925 77.2069C38.8517 77.835 39.5136 78.2879 40.2679 78.4901C41.4447 78.8323 42.6861 78.8945 43.8916 78.6716C45.0971 78.4487 46.2328 77.9469 47.207 77.2069C52.5546 73.2933 54.1139 66.0891 54.2371 59.7315ZM44.9779 63.2138C44.754 61.8834 44.0636 60.6747 43.029 59.8015C41.9944 58.9283 40.6822 58.4471 39.3248 58.4429C38.3265 58.4406 37.3452 58.6996 36.4796 59.1937C37.055 58.143 38.013 57.3507 39.1572 56.9793C40.3015 56.6079 41.5455 56.6854 42.6341 57.196C43.7227 57.7066 44.5736 58.6116 45.0124 59.7255C45.4511 60.8394 45.4445 62.0779 44.994 63.1872L44.9779 63.2138Z" fill="#D2DAE2"/>
<path d="M76.3617 12.3797C71.9994 12.3749 67.7978 14.0153 64.6055 16.9695V16.8418C39.9571 14.5841 28.276 31.133 26.4488 42.8045C25.9662 45.8213 25.6585 48.8631 25.5271 51.915C25.3825 54.7849 25.3128 56.0894 23.9196 58.6985C21.6638 62.873 17.6182 63.1233 13.6906 63.3416C13.1445 62.7439 12.5335 62.2081 11.8687 61.7442C11.0095 61.1431 10.0698 60.6645 9.07703 60.3225C8.13038 59.9918 7.14221 59.7929 6.14066 59.7315C5.87989 59.7102 5.61733 59.6995 5.35299 59.6995C5.09579 59.6995 4.81715 59.6995 4.58674 59.7262C2.97696 60.9184 1.71113 62.5105 0.916282 64.3426C0.0901659 66.267 -0.180975 68.3817 0.133192 70.4505C0.44736 72.5192 1.33445 74.4603 2.69525 76.0567C2.82385 77.7393 5.428 85.9445 5.7495 86.7752C7.11587 90.3214 8.61085 93.9581 11.5044 96.5512C20.7368 104.826 33.2753 108.697 45.5191 109.389C57.7629 110.081 70.1674 107.791 81.5807 103.393C82.575 103.086 83.4821 102.55 84.2277 101.828C84.5658 101.436 84.8081 100.971 84.9357 100.471C85.0633 99.9705 85.0727 99.4475 84.9633 98.9429C84.8538 98.4382 84.6284 97.9655 84.3047 97.5617C83.981 97.1579 83.5677 96.8339 83.0971 96.6151C82.5506 96.3944 81.9599 96.3032 81.3717 96.3488C80.7323 96.4012 80.1068 96.5634 79.5231 96.828C78.4268 97.3836 77.3938 98.0548 76.4421 98.8301C65.1895 107.089 50.5399 108.473 37.0583 106.45C35.3811 106.194 33.72 105.885 32.0697 105.507C26.2719 104.181 20.2492 101.029 15.4106 97.6108C14.3629 96.8822 13.3608 96.0909 12.4099 95.2413C9.19491 92.3554 5.76557 83.836 4.66176 76.0727C7.44696 75.8679 10.0576 74.6469 11.9914 72.6446C13.9253 70.6424 15.0457 68.0002 15.1373 65.2265C15.0569 65.0934 14.9712 64.9602 14.8855 64.8325C18.6363 64.5822 22.923 63.9273 25.3342 59.4173C26.9417 56.4941 26.9953 54.8808 27.1453 51.9629C27.2745 48.9663 27.5768 45.9796 28.0509 43.0175C29.7549 32.134 40.5358 16.7991 63.2659 18.3167L63.1052 18.4977C62.6594 19.0232 62.2478 19.5763 61.8727 20.1537C60.8388 21.7237 60.073 23.4526 59.6062 25.2706C65.2679 25.6481 70.6981 27.6479 75.24 31.0281C79.7818 34.4083 83.2405 39.024 85.1976 44.3167C87.094 43.1987 88.7566 41.7291 90.0951 39.9878C92.0577 37.4419 93.2644 34.4011 93.5787 31.2093C93.8929 28.0175 93.3023 24.8019 91.8735 21.9263C90.4446 19.0506 88.2347 16.6296 85.4934 14.9368C82.7522 13.2441 79.5891 12.3473 76.3617 12.3478V12.3797Z" fill="#D2DAE2"/>
</g>
<defs>
<clipPath id="clip0">
<rect width="176" height="140" fill="white"/>
</clipPath>
</defs>
</svg>
